<mxfile host="app.diagrams.net" agent="Mozilla/5.0 (Windows NT 10.0; Win64; x64) AppleWebKit/537.36 (KHTML, like Gecko) Chrome/131.0.0.0 Safari/537.36" version="26.0.4">
  <diagram name="Страница — 1" id="pVD0GteFb3Y1jPcfT5vK">
    <mxGraphModel dx="1619" dy="1105" grid="1" gridSize="10" guides="1" tooltips="1" connect="1" arrows="1" fold="1" page="1" pageScale="1" pageWidth="827" pageHeight="1169" math="0" shadow="0">
      <root>
        <mxCell id="0" />
        <mxCell id="1" parent="0" />
        <mxCell id="RFbKVdMYS6WmCdqGn8fj-1" value="" style="endArrow=none;dashed=1;html=1;dashPattern=1 3;strokeWidth=2;rounded=0;" parent="1" source="RFbKVdMYS6WmCdqGn8fj-10" target="RFbKVdMYS6WmCdqGn8fj-9" edge="1">
          <mxGeometry width="50" height="50" relative="1" as="geometry">
            <mxPoint x="450" y="530" as="sourcePoint" />
            <mxPoint x="500" y="480" as="targetPoint" />
          </mxGeometry>
        </mxCell>
        <mxCell id="RFbKVdMYS6WmCdqGn8fj-2" value="" style="endArrow=none;dashed=1;html=1;dashPattern=1 3;strokeWidth=2;rounded=0;" parent="1" source="RFbKVdMYS6WmCdqGn8fj-11" target="RFbKVdMYS6WmCdqGn8fj-5" edge="1">
          <mxGeometry width="50" height="50" relative="1" as="geometry">
            <mxPoint x="328.3333333333335" y="80" as="sourcePoint" />
            <mxPoint x="500" y="480" as="targetPoint" />
          </mxGeometry>
        </mxCell>
        <mxCell id="RFbKVdMYS6WmCdqGn8fj-3" value="Модули" style="ellipse;whiteSpace=wrap;html=1;aspect=fixed;" parent="1" vertex="1">
          <mxGeometry x="-300" y="300" width="80" height="80" as="geometry" />
        </mxCell>
        <mxCell id="RFbKVdMYS6WmCdqGn8fj-4" value="random" style="rounded=0;whiteSpace=wrap;html=1;" parent="1" vertex="1">
          <mxGeometry x="240" y="210" width="80" height="40" as="geometry" />
        </mxCell>
        <mxCell id="RFbKVdMYS6WmCdqGn8fj-5" value="&lt;div style=&quot;color: rgb(204, 204, 204); background-color: rgb(31, 31, 31); font-family: Consolas, &amp;quot;Courier New&amp;quot;, monospace; font-size: 14px; line-height: 19px; white-space: pre;&quot;&gt;&lt;span style=&quot;color: rgb(78, 201, 176);&quot;&gt;random&lt;/span&gt;.&lt;span style=&quot;color: rgb(156, 220, 254);&quot;&gt;randint&lt;/span&gt;(&lt;span style=&quot;color: rgb(181, 206, 168);&quot;&gt;0&lt;/span&gt;, &lt;span style=&quot;color: rgb(181, 206, 168);&quot;&gt;5)&lt;/span&gt;&lt;/div&gt;" style="rounded=0;whiteSpace=wrap;html=1;" parent="1" vertex="1">
          <mxGeometry x="380" y="215" width="180" height="30" as="geometry" />
        </mxCell>
        <mxCell id="RFbKVdMYS6WmCdqGn8fj-6" value=".random" style="rounded=0;whiteSpace=wrap;html=1;" parent="1" vertex="1">
          <mxGeometry x="380" y="165" width="180" height="30" as="geometry" />
        </mxCell>
        <mxCell id="RFbKVdMYS6WmCdqGn8fj-7" value="&lt;span style=&quot;font-family: Consolas, &amp;quot;Courier New&amp;quot;, monospace; font-size: 14px; text-align: start; white-space: pre;&quot;&gt;0.06620571061501623&lt;/span&gt;" style="rounded=0;whiteSpace=wrap;html=1;fontColor=default;" parent="1" vertex="1">
          <mxGeometry x="590" y="165" width="200" height="30" as="geometry" />
        </mxCell>
        <mxCell id="RFbKVdMYS6WmCdqGn8fj-8" value="&lt;span style=&quot;font-family: Consolas, &amp;quot;Courier New&amp;quot;, monospace; font-size: 14px; text-align: start; white-space: pre;&quot;&gt;5&lt;/span&gt;" style="rounded=0;whiteSpace=wrap;html=1;fontColor=default;" parent="1" vertex="1">
          <mxGeometry x="590" y="215" width="60" height="30" as="geometry" />
        </mxCell>
        <mxCell id="RFbKVdMYS6WmCdqGn8fj-9" value="&lt;div style=&quot;color: rgb(204, 204, 204); background-color: rgb(31, 31, 31); font-family: Consolas, &amp;quot;Courier New&amp;quot;, monospace; font-size: 14px; line-height: 19px; white-space: pre;&quot;&gt;&lt;div style=&quot;color: rgb(204, 204, 204); background-color: rgb(31, 31, 31); line-height: 19px;&quot;&gt;&lt;span style=&quot;color: #4ec9b0;&quot;&gt;random&lt;/span&gt;.&lt;span style=&quot;color: #9cdcfe;&quot;&gt;randrange&lt;/span&gt;(&lt;span style=&quot;color: #b5cea8;&quot;&gt;0&lt;/span&gt;, &lt;span style=&quot;color: #b5cea8;&quot;&gt;5&lt;/span&gt;)&lt;/div&gt;&lt;/div&gt;" style="rounded=0;whiteSpace=wrap;html=1;" parent="1" vertex="1">
          <mxGeometry x="380" y="260" width="180" height="30" as="geometry" />
        </mxCell>
        <mxCell id="RFbKVdMYS6WmCdqGn8fj-10" value="[0 ; 5)" style="rounded=0;whiteSpace=wrap;html=1;fontSize=16;" parent="1" vertex="1">
          <mxGeometry x="180" y="105" width="120" height="60" as="geometry" />
        </mxCell>
        <mxCell id="RFbKVdMYS6WmCdqGn8fj-11" value="[0 ; 5]" style="rounded=0;whiteSpace=wrap;html=1;fontSize=16;" parent="1" vertex="1">
          <mxGeometry x="230" y="10" width="120" height="60" as="geometry" />
        </mxCell>
        <mxCell id="RFbKVdMYS6WmCdqGn8fj-12" value="&lt;span style=&quot;font-family: Consolas, &amp;quot;Courier New&amp;quot;, monospace; font-size: 14px; text-align: start; white-space: pre;&quot;&gt;3&lt;/span&gt;" style="rounded=0;whiteSpace=wrap;html=1;fontColor=default;" parent="1" vertex="1">
          <mxGeometry x="590" y="260" width="60" height="30" as="geometry" />
        </mxCell>
        <mxCell id="RFbKVdMYS6WmCdqGn8fj-13" value="третий аргумент для указания шага" style="triangle;whiteSpace=wrap;html=1;align=left;" parent="1" vertex="1">
          <mxGeometry x="692.5" y="210" width="127.5" height="80" as="geometry" />
        </mxCell>
        <mxCell id="RFbKVdMYS6WmCdqGn8fj-14" value="" style="endArrow=none;html=1;rounded=0;" parent="1" source="RFbKVdMYS6WmCdqGn8fj-4" target="RFbKVdMYS6WmCdqGn8fj-6" edge="1">
          <mxGeometry width="50" height="50" relative="1" as="geometry">
            <mxPoint x="450" y="530" as="sourcePoint" />
            <mxPoint x="500" y="480" as="targetPoint" />
          </mxGeometry>
        </mxCell>
        <mxCell id="RFbKVdMYS6WmCdqGn8fj-15" value="" style="endArrow=none;html=1;rounded=0;" parent="1" source="RFbKVdMYS6WmCdqGn8fj-4" target="RFbKVdMYS6WmCdqGn8fj-5" edge="1">
          <mxGeometry width="50" height="50" relative="1" as="geometry">
            <mxPoint x="330" y="229" as="sourcePoint" />
            <mxPoint x="423" y="205" as="targetPoint" />
          </mxGeometry>
        </mxCell>
        <mxCell id="RFbKVdMYS6WmCdqGn8fj-16" value="" style="endArrow=none;html=1;rounded=0;" parent="1" source="RFbKVdMYS6WmCdqGn8fj-4" target="RFbKVdMYS6WmCdqGn8fj-9" edge="1">
          <mxGeometry width="50" height="50" relative="1" as="geometry">
            <mxPoint x="330" y="240" as="sourcePoint" />
            <mxPoint x="390" y="240" as="targetPoint" />
          </mxGeometry>
        </mxCell>
        <mxCell id="RFbKVdMYS6WmCdqGn8fj-17" value="&lt;div style=&quot;color: rgb(204, 204, 204); background-color: rgb(31, 31, 31); font-family: Consolas, &amp;quot;Courier New&amp;quot;, monospace; font-size: 14px; line-height: 19px; white-space: pre;&quot;&gt;&lt;div&gt;&lt;span style=&quot;color: rgb(156, 220, 254);&quot;&gt;a&lt;/span&gt; &lt;span style=&quot;color: rgb(212, 212, 212);&quot;&gt;=&lt;/span&gt; [&lt;span style=&quot;color: rgb(206, 145, 120);&quot;&gt;&#39;a&#39;&lt;/span&gt;, &lt;span style=&quot;color: rgb(206, 145, 120);&quot;&gt;&#39;b&#39;&lt;/span&gt;, &lt;span style=&quot;color: rgb(206, 145, 120);&quot;&gt;&#39;c&#39;&lt;/span&gt;]&lt;/div&gt;&lt;div&gt;&lt;span style=&quot;color: rgb(220, 220, 170);&quot;&gt;print&lt;/span&gt;(&lt;span style=&quot;color: rgb(78, 201, 176);&quot;&gt;random&lt;/span&gt;.&lt;span style=&quot;color: rgb(156, 220, 254);&quot;&gt;choice&lt;/span&gt;(&lt;span style=&quot;color: rgb(156, 220, 254);&quot;&gt;a&lt;/span&gt;)&lt;/div&gt;&lt;/div&gt;" style="rounded=0;whiteSpace=wrap;html=1;align=left;" parent="1" vertex="1">
          <mxGeometry x="380" y="310" width="172.5" height="50" as="geometry" />
        </mxCell>
        <mxCell id="RFbKVdMYS6WmCdqGn8fj-18" value="" style="endArrow=none;html=1;rounded=0;" parent="1" source="RFbKVdMYS6WmCdqGn8fj-4" target="RFbKVdMYS6WmCdqGn8fj-17" edge="1">
          <mxGeometry width="50" height="50" relative="1" as="geometry">
            <mxPoint x="450" y="530" as="sourcePoint" />
            <mxPoint x="500" y="480" as="targetPoint" />
            <Array as="points">
              <mxPoint x="280" y="340" />
            </Array>
          </mxGeometry>
        </mxCell>
        <mxCell id="RFbKVdMYS6WmCdqGn8fj-19" value="" style="endArrow=none;html=1;rounded=0;" parent="1" source="RFbKVdMYS6WmCdqGn8fj-28" target="RFbKVdMYS6WmCdqGn8fj-4" edge="1">
          <mxGeometry width="50" height="50" relative="1" as="geometry">
            <mxPoint x="330" y="630" as="sourcePoint" />
            <mxPoint x="380" y="580" as="targetPoint" />
            <Array as="points">
              <mxPoint x="40" y="230" />
            </Array>
          </mxGeometry>
        </mxCell>
        <mxCell id="RFbKVdMYS6WmCdqGn8fj-20" value="os" style="rounded=0;whiteSpace=wrap;html=1;" parent="1" vertex="1">
          <mxGeometry x="220" y="410" width="120" height="60" as="geometry" />
        </mxCell>
        <mxCell id="RFbKVdMYS6WmCdqGn8fj-21" value="Для работы с операционной системой: использование путей, файлов, удаление и тд" style="rounded=1;whiteSpace=wrap;html=1;" parent="1" vertex="1">
          <mxGeometry x="195" y="500" width="170" height="60" as="geometry" />
        </mxCell>
        <mxCell id="RFbKVdMYS6WmCdqGn8fj-22" value="" style="endArrow=none;html=1;rounded=0;" parent="1" source="RFbKVdMYS6WmCdqGn8fj-28" target="RFbKVdMYS6WmCdqGn8fj-20" edge="1">
          <mxGeometry width="50" height="50" relative="1" as="geometry">
            <mxPoint x="70" y="570" as="sourcePoint" />
            <mxPoint x="120" y="520" as="targetPoint" />
            <Array as="points">
              <mxPoint x="40" y="440" />
            </Array>
          </mxGeometry>
        </mxCell>
        <mxCell id="RFbKVdMYS6WmCdqGn8fj-23" value="sys" style="rounded=0;whiteSpace=wrap;html=1;" parent="1" vertex="1">
          <mxGeometry x="220" y="600" width="120" height="60" as="geometry" />
        </mxCell>
        <mxCell id="RFbKVdMYS6WmCdqGn8fj-24" value="Определяет операционную систему" style="rounded=1;whiteSpace=wrap;html=1;" parent="1" vertex="1">
          <mxGeometry x="220" y="690" width="120" height="60" as="geometry" />
        </mxCell>
        <mxCell id="RFbKVdMYS6WmCdqGn8fj-25" value="" style="endArrow=none;html=1;rounded=0;" parent="1" source="RFbKVdMYS6WmCdqGn8fj-23" target="RFbKVdMYS6WmCdqGn8fj-28" edge="1">
          <mxGeometry width="50" height="50" relative="1" as="geometry">
            <mxPoint x="70" y="570" as="sourcePoint" />
            <mxPoint x="120" y="520" as="targetPoint" />
            <Array as="points">
              <mxPoint x="40" y="630" />
            </Array>
          </mxGeometry>
        </mxCell>
        <mxCell id="RFbKVdMYS6WmCdqGn8fj-26" value="" style="endArrow=none;html=1;rounded=0;" parent="1" source="RFbKVdMYS6WmCdqGn8fj-21" target="RFbKVdMYS6WmCdqGn8fj-20" edge="1">
          <mxGeometry width="50" height="50" relative="1" as="geometry">
            <mxPoint x="70" y="570" as="sourcePoint" />
            <mxPoint x="120" y="520" as="targetPoint" />
          </mxGeometry>
        </mxCell>
        <mxCell id="RFbKVdMYS6WmCdqGn8fj-27" value="" style="endArrow=none;html=1;rounded=0;" parent="1" source="RFbKVdMYS6WmCdqGn8fj-24" target="RFbKVdMYS6WmCdqGn8fj-23" edge="1">
          <mxGeometry width="50" height="50" relative="1" as="geometry">
            <mxPoint x="290" y="510" as="sourcePoint" />
            <mxPoint x="290" y="480" as="targetPoint" />
          </mxGeometry>
        </mxCell>
        <mxCell id="RFbKVdMYS6WmCdqGn8fj-28" value="Встроенные" style="rounded=0;whiteSpace=wrap;html=1;" parent="1" vertex="1">
          <mxGeometry x="-20" y="300" width="120" height="60" as="geometry" />
        </mxCell>
        <mxCell id="RFbKVdMYS6WmCdqGn8fj-29" value="" style="endArrow=classic;html=1;rounded=0;" parent="1" source="RFbKVdMYS6WmCdqGn8fj-3" target="RFbKVdMYS6WmCdqGn8fj-28" edge="1">
          <mxGeometry width="50" height="50" relative="1" as="geometry">
            <mxPoint x="-190" y="490" as="sourcePoint" />
            <mxPoint x="-140" y="440" as="targetPoint" />
          </mxGeometry>
        </mxCell>
        <mxCell id="RFbKVdMYS6WmCdqGn8fj-30" value="Сторонние" style="rounded=0;whiteSpace=wrap;html=1;" parent="1" vertex="1">
          <mxGeometry x="-440" y="530" width="120" height="60" as="geometry" />
        </mxCell>
        <mxCell id="RFbKVdMYS6WmCdqGn8fj-31" value="" style="endArrow=classic;html=1;rounded=0;" parent="1" source="RFbKVdMYS6WmCdqGn8fj-3" target="RFbKVdMYS6WmCdqGn8fj-30" edge="1">
          <mxGeometry width="50" height="50" relative="1" as="geometry">
            <mxPoint x="-190" y="490" as="sourcePoint" />
            <mxPoint x="-140" y="440" as="targetPoint" />
          </mxGeometry>
        </mxCell>
        <mxCell id="RFbKVdMYS6WmCdqGn8fj-32" value="Требуют установки" style="rounded=1;whiteSpace=wrap;html=1;" parent="1" vertex="1">
          <mxGeometry x="-680" y="360" width="120" height="60" as="geometry" />
        </mxCell>
        <mxCell id="sEicUjzaIH7FXDkEYWHz-1" value="Команду для установки смотреть тут:&amp;nbsp;https://pypi.org/" style="rounded=1;whiteSpace=wrap;html=1;" vertex="1" parent="1">
          <mxGeometry x="-200" y="525" width="120" height="60" as="geometry" />
        </mxCell>
        <mxCell id="sEicUjzaIH7FXDkEYWHz-2" value="" style="endArrow=none;dashed=1;html=1;dashPattern=1 3;strokeWidth=2;rounded=0;" edge="1" parent="1" source="RFbKVdMYS6WmCdqGn8fj-30" target="sEicUjzaIH7FXDkEYWHz-1">
          <mxGeometry width="50" height="50" relative="1" as="geometry">
            <mxPoint x="-450" y="480" as="sourcePoint" />
            <mxPoint x="-400" y="430" as="targetPoint" />
          </mxGeometry>
        </mxCell>
      </root>
    </mxGraphModel>
  </diagram>
</mxfile>
